<?xml version="1.0" encoding="iso-8859-1"?>
<!-- Generator: Adobe Illustrator 19.0.0, SVG Export Plug-In . SVG Version: 6.00 Build 0)  -->
<svg version="1.1" id="Capa_1" xmlns="http://www.w3.org/2000/svg" xmlns:xlink="http://www.w3.org/1999/xlink" x="0px" y="0px"
	 viewBox="0 0 419.445 419.445" style="enable-background:new 0 0 419.445 419.445;" xml:space="preserve">
<g>
	<g>
		<path d="M203.243,160.482c-0.216-0.889-0.596-1.73-1.12-2.48v8.72C203.339,164.885,203.745,162.628,203.243,160.482z"/>
	</g>
</g>
<g>
	<g>
		<path d="M362.763,164.242c-14.88-11.92-38.16-18.16-67.04-18.64c23.12-12.32,39.52-27.04,47.28-43.12
			c6.001-11.497,6.296-25.134,0.8-36.88c-5.356-11.908-15.544-20.961-28-24.88c-9.141-2.686-18.783-3.206-28.16-1.52
			c-2.66-9.225-7.457-17.694-14-24.72c-8.75-9.359-21.029-14.613-33.84-14.48c-12.995,0.119-25.188,6.304-32.96,16.72
			c-11.12,13.84-17.28,35.04-18.48,61.2c-13.12-25.92-28.8-44.32-46-52.32c-11.428-5.999-24.994-6.354-36.72-0.96
			c-11.908,5.356-20.961,15.544-24.88,28c-2.679,9.115-3.2,18.729-1.52,28.08c-9.214,2.58-17.703,7.263-24.8,13.68
			c-9.526,8.901-14.795,21.447-14.48,34.48c0.156,12.883,6.271,24.966,16.56,32.72c14.88,11.92,38.16,18.16,67.04,18.56
			c-23.12,12.32-39.52,27.04-47.2,43.12c-6.026,11.484-6.352,25.122-0.88,36.88c5.357,11.861,15.51,20.88,27.92,24.8
			c5.547,1.692,11.32,2.529,17.12,2.48c3.754-0.008,7.5-0.329,11.2-0.96c2.532,9.216,7.19,17.71,13.6,24.8
			c8.844,9.463,21.29,14.726,34.24,14.48c12.995-0.119,25.188-6.304,32.96-16.72c3.516-4.519,6.445-9.465,8.72-14.72
			c-0.019,38.763-4.203,77.411-12.48,115.28c-1.018,4.299,1.643,8.61,5.942,9.628c0.674,0.16,1.366,0.231,2.058,0.212h30.24
			c3.23-0.016,6.133-1.973,7.36-4.96c17.52-42.72,13.04-91.12,5.6-125.68c5.081,4.826,10.85,8.87,17.12,12
			c6.145,3.047,12.901,4.661,19.76,4.72c5.836-0.144,11.571-1.564,16.8-4.16c11.924-5.258,21.035-15.358,25.04-27.76
			c2.695-9.14,3.215-18.783,1.52-28.16c9.213-2.54,17.705-7.197,24.8-13.6c9.526-8.901,14.795-21.447,14.48-34.48
			C379.414,184.311,373.223,172.048,362.763,164.242z M66.523,149.282l0.24,0.08c-6.608-4.75-10.582-12.343-10.72-20.48
			c0-27.76,29.68-33.28,32.8-33.76c1.514,0.196,3.052-0.083,4.4-0.8c3.294-1.927,4.768-5.913,3.52-9.52v-0.56c0,0,0,0,0-0.56
			s-10.16-32,16-44.48c7.402-3.391,15.97-3.094,23.12,0.8c23.04,11.12,44.16,47.04,57.28,97.04c0.88,4.8,1.76,9.6,2.88,14.48
			c0.382,1.796,1.371,3.406,2.8,4.56c-1.626-0.836-3.489-1.09-5.28-0.72c-4.96,1.2-9.76,2.48-14.48,3.76
			C127.963,168.802,86.523,165.282,66.523,149.282z M214.363,168.482c-4.215,0.848-7.006,4.876-6.32,9.12l0.56,2.72
			c-0.194,1.004-0.194,2.036,0,3.04c0.72,2.96,1.44,5.76,2.16,8.56c3.175,17.119,4.649,34.511,4.4,51.92
			c-0.64,24-5.68,43.28-15.04,55.04c-4.759,6.598-12.346,10.57-20.48,10.72c-27.52,0-33.04-29.44-33.6-32.8
			c0.191-1.514-0.088-3.05-0.8-4.4c-1.879-3.213-5.726-4.705-9.28-3.6h-0.96c0,0-32,10.16-44.56-16
			c-3.403-7.4-3.107-15.973,0.8-23.12c10.8-22.4,44.96-42.88,92.72-56l8-1.52c1.007-0.241,1.958-0.676,2.8-1.28l2.72-0.64
			c4.277-1.028,6.922-5.317,5.92-9.6c-0.486-1.854-1.621-3.472-3.2-4.56c1.164,0.693,2.486,1.078,3.84,1.12h1.68
			c4.304-0.956,7.023-5.214,6.08-9.52l-1.12-2.08c0.194-1.004,0.194-2.036,0-3.04c-0.64-2.88-1.36-5.68-2.08-8.4
			c-8.56-48.4-4.8-88,10.64-107.2c4.674-6.644,12.2-10.704,20.32-10.96c27.52,0,33.04,29.44,33.6,32.8
			c-0.191,1.514,0.088,3.05,0.8,4.4c1.92,3.256,5.857,4.724,9.44,3.52h0.88c0,0,32-10.16,44.48,16c3.403,7.4,3.107,15.973-0.8,23.12
			c-10.72,22.24-44.64,42.72-92.08,56l-7.92,1.76c-0.974,0.227-1.896,0.634-2.72,1.2l-2.72,0.72c-4.122,0.992-6.754,5.028-6,9.2
			l0.24,0.08c0.416,1.738,1.401,3.287,2.8,4.4C217.96,168.384,216.128,168.131,214.363,168.482z M241.643,403.202h-15.2
			c5.2-25.68,17.44-96,7.2-148.64C241.003,275.602,262.203,345.602,241.643,403.202z M330.603,230.962
			c-1.488-0.169-2.992,0.109-4.32,0.8c-3.45,1.955-4.947,6.141-3.52,9.84v0.56c0,0,0,0,0,0.56s10.16,32-16,44.48
			c-7.402,3.391-15.97,3.094-23.12-0.8c-13.68-6.56-26.64-21.84-37.68-43.68c-8.266-16.937-14.754-34.685-19.36-52.96
			c-0.88-4.8-1.76-9.68-2.88-14.64c-0.43-1.901-1.54-3.579-3.12-4.72c1.148,0.652,2.44,1.009,3.76,1.04h1.84
			c4.88-1.12,9.68-2.4,14.32-3.68c50.72-9.76,92.32-6.32,112,9.68c6.608,4.75,10.582,12.343,10.72,20.48
			C363.563,225.042,333.563,230.562,330.603,230.962z"/>
	</g>
</g>
<g>
</g>
<g>
</g>
<g>
</g>
<g>
</g>
<g>
</g>
<g>
</g>
<g>
</g>
<g>
</g>
<g>
</g>
<g>
</g>
<g>
</g>
<g>
</g>
<g>
</g>
<g>
</g>
<g>
</g>
</svg>
